<svg width="64" height="64" viewBox="0 0 64 64" fill="none" xmlns="http://www.w3.org/2000/svg">
<path d="M8.12511 34.4999C6.08775 30.6937 5.48624 26.2821 6.43027 22.0694C7.37429 17.8567 9.80096 14.1236 13.2678 11.5508C16.7346 8.97807 21.0106 7.73702 25.3162 8.05397C29.6217 8.37092 33.6699 10.2248 36.7226 13.2775C39.7753 16.3302 41.6291 20.3784 41.9461 24.6839C42.263 28.9894 41.022 33.2654 38.4492 36.7323C35.8765 40.1991 32.1434 42.6258 27.9307 43.5698C23.718 44.5138 19.3063 43.9123 15.5001 41.8749L8.56011 43.9149C8.2155 44.0161 7.85 44.0227 7.502 43.9339C7.15399 43.845 6.83633 43.6642 6.58236 43.4102C6.3284 43.1562 6.14751 42.8386 6.05869 42.4906C5.96988 42.1426 5.97641 41.7771 6.07761 41.4324L8.12511 34.4999Z" stroke="white" stroke-width="3" stroke-linecap="round" stroke-linejoin="round"/>
<path d="M40.9851 20.0276C44.0089 20.192 46.9424 21.1166 49.5139 22.7159C52.0855 24.3151 54.212 26.5373 55.6965 29.1767C57.1811 31.8161 57.9758 34.7874 58.007 37.8155C58.0383 40.8436 57.305 43.8306 55.8751 46.5001L57.9151 53.4401C58.0163 53.7847 58.0229 54.1502 57.9341 54.4982C57.8452 54.8462 57.6643 55.1639 57.4104 55.4178C57.1564 55.6718 56.8388 55.8527 56.4907 55.9415C56.1427 56.0303 55.7772 56.0238 55.4326 55.9226L48.5001 53.8751C46.2101 55.0998 43.6823 55.8148 41.0901 55.9712C38.4978 56.1275 35.9024 55.7215 33.4818 54.781C31.0611 53.8404 28.8725 52.3875 27.0659 50.5219C25.2593 48.6564 23.8775 46.4222 23.0151 43.9726" stroke="white" stroke-width="3" stroke-linecap="round" stroke-linejoin="round"/>
</svg>
