<svg width="64" height="64" viewBox="0 0 64 64" fill="none" xmlns="http://www.w3.org/2000/svg">
<g clip-path="url(#clip0_43_2997)">
<path d="M41.0005 32.415L49.9454 37.7975C50.1744 37.9387 50.4399 38.0091 50.7087 37.9999C50.9775 37.9908 51.2376 37.9024 51.4563 37.7458C51.6751 37.5893 51.8427 37.3717 51.9382 37.1202C52.0336 36.8688 52.0527 36.5948 51.993 36.3325L49.5605 26.285L57.5205 19.565C57.725 19.3926 57.8735 19.1631 57.947 18.9059C58.0205 18.6487 58.0156 18.3754 57.9329 18.1209C57.8502 17.8665 57.6936 17.6425 57.4829 17.4776C57.2723 17.3126 57.0173 17.2143 56.7505 17.195L46.303 16.3675L42.278 6.83251C42.1714 6.58539 41.9949 6.37487 41.7701 6.22697C41.5453 6.07906 41.2821 6.00024 41.013 6.00024C40.7439 6.00024 40.4806 6.07906 40.2558 6.22697C40.031 6.37487 39.8545 6.58539 39.748 6.83251L35.7229 16.3675L25.2754 17.195C25.0076 17.212 24.7509 17.3088 24.5385 17.4728C24.3261 17.6369 24.1676 17.8608 24.0834 18.1156C23.9993 18.3705 23.9933 18.6447 24.0663 18.903C24.1393 19.1613 24.2879 19.3919 24.493 19.565L32.4529 26.285L30.0005 36.3325C29.9407 36.5948 29.9598 36.8688 30.0552 37.1202C30.1507 37.3717 30.3183 37.5893 30.5371 37.7458C30.7558 37.9024 31.0159 37.9908 31.2847 37.9999C31.5535 38.0091 31.819 37.9387 32.048 37.7975L41.0005 32.415Z" stroke="white" stroke-width="3" stroke-linecap="round" stroke-linejoin="round"/>
<path d="M20.6125 29.3875L6 44" stroke="white" stroke-width="3" stroke-linecap="round" stroke-linejoin="round"/>
<path d="M23.315 44.6851L10 58.0001" stroke="white" stroke-width="3" stroke-linecap="round" stroke-linejoin="round"/>
<path d="M41.57 44.4299L28 57.9999" stroke="white" stroke-width="3" stroke-linecap="round" stroke-linejoin="round"/>
</g>
<defs>
<clipPath id="clip0_43_2997">
<rect width="64" height="64" fill="white"/>
</clipPath>
</defs>
</svg>
